solid Untitled-62998f2a
facet normal 0.60876142900872 -0.7933533402912358 0.0
  outer loop
    vertex 4.254843880200918 -4.254843880200921 1.9999999999999998
    vertex 3.0086289605801486 -5.211098220847966 0.0
    vertex 4.254843880200918 -4.254843880200921 0.0
  endloop
endfacet
facet normal 0.60876142900872 -0.7933533402912358 0.0
  outer loop
    vertex 3.0086289605801486 -5.211098220847966 0.0
    vertex 4.254843880200918 -4.254843880200921 1.9999999999999998
    vertex 3.0086289605801486 -5.211098220847966 1.9999999999999998
  endloop
endfacet
facet normal 0.3826834323650906 0.9238795325112866 0.0
  outer loop
    vertex 1.5573809492902935 5.812224829491208 1.9999999999999998
    vertex 3.0086289605801535 5.211098220847965 0.0
    vertex 1.5573809492902935 5.812224829491208 0.0
  endloop
endfacet
facet normal 0.3826834323650906 0.9238795325112866 0.0
  outer loop
    vertex 3.0086289605801535 5.211098220847965 0.0
    vertex 1.5573809492902935 5.812224829491208 1.9999999999999998
    vertex 3.0086289605801535 5.211098220847965 1.9999999999999998
  endloop
endfacet
facet normal -0.3826834323650897 -0.9238795325112867 -0.0
  outer loop
    vertex -1.5573809492902926 -5.812224829491208 1.9999999999999998
    vertex -3.008628960580149 -5.211098220847967 0.0
    vertex -1.5573809492902926 -5.812224829491208 0.0
  endloop
endfacet
facet normal -0.3826834323650897 -0.9238795325112867 -0.0
  outer loop
    vertex -3.008628960580149 -5.211098220847967 0.0
    vertex -1.5573809492902926 -5.812224829491208 1.9999999999999998
    vertex -3.008628960580149 -5.211098220847967 1.9999999999999998
  endloop
endfacet
facet normal -0.7933533402912357 -0.60876142900872 -0.0
  outer loop
    vertex -5.2110982208479655 -3.0086289605801495 1.9999999999999998
    vertex -4.254843880200919 -4.25484388020092 0.0
    vertex -4.254843880200919 -4.25484388020092 1.9999999999999998
  endloop
endfacet
facet normal -0.7933533402912357 -0.60876142900872 -0.0
  outer loop
    vertex -4.254843880200919 -4.25484388020092 0.0
    vertex -5.2110982208479655 -3.0086289605801495 1.9999999999999998
    vertex -5.2110982208479655 -3.0086289605801495 0.0
  endloop
endfacet
facet normal 0.9914448613738104 0.13052619222005163 0.0
  outer loop
    vertex 5.812224829491209 1.5573809492902906 0.0
    vertex 6.017257921160304 4.758693439299577e-15 1.9999999999999998
    vertex 6.017257921160304 4.758693439299577e-15 0.0
  endloop
endfacet
facet normal 0.9914448613738104 0.13052619222005163 0.0
  outer loop
    vertex 6.017257921160304 4.758693439299577e-15 1.9999999999999998
    vertex 5.812224829491209 1.5573809492902906 0.0
    vertex 5.812224829491209 1.5573809492902906 1.9999999999999998
  endloop
endfacet
facet normal 0.13052619222005135 -0.9914448613738106 0.0
  outer loop
    vertex 1.557380949290283 -5.8122248294912096 1.9999999999999998
    vertex -1.1015494072452725e-15 -6.017257921160304 0.0
    vertex 1.557380949290283 -5.8122248294912096 0.0
  endloop
endfacet
facet normal 0.13052619222005135 -0.9914448613738106 0.0
  outer loop
    vertex -1.1015494072452725e-15 -6.017257921160304 0.0
    vertex 1.557380949290283 -5.8122248294912096 1.9999999999999998
    vertex -1.1015494072452725e-15 -6.017257921160304 1.9999999999999998
  endloop
endfacet
facet normal -0.6087614290087203 -0.7933533402912356 -0.0
  outer loop
    vertex -3.008628960580149 -5.211098220847967 1.9999999999999998
    vertex -4.254843880200919 -4.25484388020092 0.0
    vertex -3.008628960580149 -5.211098220847967 0.0
  endloop
endfacet
facet normal -0.6087614290087203 -0.7933533402912356 -0.0
  outer loop
    vertex -4.254843880200919 -4.25484388020092 0.0
    vertex -3.008628960580149 -5.211098220847967 1.9999999999999998
    vertex -4.254843880200919 -4.25484388020092 1.9999999999999998
  endloop
endfacet
facet normal -0.9238795325112868 -0.3826834323650901 -0.0
  outer loop
    vertex -5.812224829491208 -1.5573809492902926 1.9999999999999998
    vertex -5.2110982208479655 -3.0086289605801495 0.0
    vertex -5.2110982208479655 -3.0086289605801495 1.9999999999999998
  endloop
endfacet
facet normal -0.9238795325112868 -0.3826834323650901 -0.0
  outer loop
    vertex -5.2110982208479655 -3.0086289605801495 0.0
    vertex -5.812224829491208 -1.5573809492902926 1.9999999999999998
    vertex -5.812224829491208 -1.5573809492902926 0.0
  endloop
endfacet
facet normal 0.7933533402912358 0.6087614290087201 0.0
  outer loop
    vertex 4.254843880200921 4.254843880200918 0.0
    vertex 5.211098220847967 3.0086289605801477 1.9999999999999998
    vertex 5.211098220847967 3.0086289605801477 0.0
  endloop
endfacet
facet normal 0.7933533402912358 0.6087614290087201 0.0
  outer loop
    vertex 5.211098220847967 3.0086289605801477 1.9999999999999998
    vertex 4.254843880200921 4.254843880200918 0.0
    vertex 4.254843880200921 4.254843880200918 1.9999999999999998
  endloop
endfacet
facet normal -0.9238795325112863 0.3826834323650907 0.0
  outer loop
    vertex -5.211098220847962 3.008628960580157 1.9999999999999998
    vertex -5.812224829491207 1.5573809492902948 0.0
    vertex -5.812224829491207 1.5573809492902948 1.9999999999999998
  endloop
endfacet
facet normal -0.9238795325112863 0.3826834323650907 0.0
  outer loop
    vertex -5.812224829491207 1.5573809492902948 0.0
    vertex -5.211098220847962 3.008628960580157 1.9999999999999998
    vertex -5.211098220847962 3.008628960580157 0.0
  endloop
endfacet
facet normal -0.9914448613738104 0.13052619222005188 0.0
  outer loop
    vertex -5.812224829491207 1.5573809492902948 1.9999999999999998
    vertex -6.0172579211603034 1.4981071938535704e-15 0.0
    vertex -6.0172579211603034 1.4981071938535704e-15 1.9999999999999998
  endloop
endfacet
facet normal -0.9914448613738104 0.13052619222005188 0.0
  outer loop
    vertex -6.0172579211603034 1.4981071938535704e-15 0.0
    vertex -5.812224829491207 1.5573809492902948 1.9999999999999998
    vertex -5.812224829491207 1.5573809492902948 0.0
  endloop
endfacet
facet normal 0.3826834323650889 -0.9238795325112871 0.0
  outer loop
    vertex 3.0086289605801486 -5.211098220847966 1.9999999999999998
    vertex 1.557380949290283 -5.8122248294912096 0.0
    vertex 3.0086289605801486 -5.211098220847966 0.0
  endloop
endfacet
facet normal 0.3826834323650889 -0.9238795325112871 0.0
  outer loop
    vertex 1.557380949290283 -5.8122248294912096 0.0
    vertex 3.0086289605801486 -5.211098220847966 1.9999999999999998
    vertex 1.557380949290283 -5.8122248294912096 1.9999999999999998
  endloop
endfacet
facet normal -0.13052619222005157 -0.9914448613738104 -0.0
  outer loop
    vertex -1.1015494072452725e-15 -6.017257921160304 1.9999999999999998
    vertex -1.5573809492902926 -5.812224829491208 0.0
    vertex -1.1015494072452725e-15 -6.017257921160304 0.0
  endloop
endfacet
facet normal -0.13052619222005157 -0.9914448613738104 -0.0
  outer loop
    vertex -1.5573809492902926 -5.812224829491208 0.0
    vertex -1.1015494072452725e-15 -6.017257921160304 1.9999999999999998
    vertex -1.5573809492902926 -5.812224829491208 1.9999999999999998
  endloop
endfacet
facet normal -0.3826834323650897 0.9238795325112868 0.0
  outer loop
    vertex -3.0086289605801544 5.211098220847965 1.9999999999999998
    vertex -1.557380949290286 5.81222482949121 0.0
    vertex -3.0086289605801544 5.211098220847965 0.0
  endloop
endfacet
facet normal -0.3826834323650897 0.9238795325112868 0.0
  outer loop
    vertex -1.557380949290286 5.81222482949121 0.0
    vertex -3.0086289605801544 5.211098220847965 1.9999999999999998
    vertex -1.557380949290286 5.81222482949121 1.9999999999999998
  endloop
endfacet
facet normal 0.6087614290087209 0.7933533402912349 0.0
  outer loop
    vertex 3.0086289605801535 5.211098220847965 1.9999999999999998
    vertex 4.254843880200921 4.254843880200918 0.0
    vertex 3.0086289605801535 5.211098220847965 0.0
  endloop
endfacet
facet normal 0.6087614290087209 0.7933533402912349 0.0
  outer loop
    vertex 4.254843880200921 4.254843880200918 0.0
    vertex 3.0086289605801535 5.211098220847965 1.9999999999999998
    vertex 4.254843880200921 4.254843880200918 1.9999999999999998
  endloop
endfacet
facet normal 0.9238795325112867 0.38268343236509 0.0
  outer loop
    vertex 5.211098220847967 3.0086289605801477 0.0
    vertex 5.812224829491209 1.5573809492902906 1.9999999999999998
    vertex 5.812224829491209 1.5573809492902906 0.0
  endloop
endfacet
facet normal 0.9238795325112867 0.38268343236509 0.0
  outer loop
    vertex 5.812224829491209 1.5573809492902906 1.9999999999999998
    vertex 5.211098220847967 3.0086289605801477 0.0
    vertex 5.211098220847967 3.0086289605801477 1.9999999999999998
  endloop
endfacet
facet normal 0.9914448613738104 -0.1305261922200518 0.0
  outer loop
    vertex 6.017257921160304 4.758693439299577e-15 0.0
    vertex 5.812224829491207 -1.557380949290295 1.9999999999999998
    vertex 5.812224829491207 -1.557380949290295 0.0
  endloop
endfacet
facet normal 0.9914448613738104 -0.1305261922200518 0.0
  outer loop
    vertex 5.812224829491207 -1.557380949290295 1.9999999999999998
    vertex 6.017257921160304 4.758693439299577e-15 0.0
    vertex 6.017257921160304 4.758693439299577e-15 1.9999999999999998
  endloop
endfacet
facet normal 0.9238795325112868 -0.3826834323650896 0.0
  outer loop
    vertex 5.812224829491207 -1.557380949290295 0.0
    vertex 5.211098220847966 -3.0086289605801504 1.9999999999999998
    vertex 5.211098220847966 -3.0086289605801504 0.0
  endloop
endfacet
facet normal 0.9238795325112868 -0.3826834323650896 0.0
  outer loop
    vertex 5.211098220847966 -3.0086289605801504 1.9999999999999998
    vertex 5.812224829491207 -1.557380949290295 0.0
    vertex 5.812224829491207 -1.557380949290295 1.9999999999999998
  endloop
endfacet
facet normal -0.9914448613738106 -0.1305261922200514 -0.0
  outer loop
    vertex -6.0172579211603034 1.4981071938535704e-15 1.9999999999999998
    vertex -5.812224829491208 -1.5573809492902926 0.0
    vertex -5.812224829491208 -1.5573809492902926 1.9999999999999998
  endloop
endfacet
facet normal -0.9914448613738106 -0.1305261922200514 -0.0
  outer loop
    vertex -5.812224829491208 -1.5573809492902926 0.0
    vertex -6.0172579211603034 1.4981071938535704e-15 1.9999999999999998
    vertex -6.0172579211603034 1.4981071938535704e-15 0.0
  endloop
endfacet
facet normal -0.608761429008721 0.7933533402912349 0.0
  outer loop
    vertex -4.254843880200918 4.254843880200921 1.9999999999999998
    vertex -3.0086289605801544 5.211098220847965 0.0
    vertex -4.254843880200918 4.254843880200921 0.0
  endloop
endfacet
facet normal -0.608761429008721 0.7933533402912349 0.0
  outer loop
    vertex -3.0086289605801544 5.211098220847965 0.0
    vertex -4.254843880200918 4.254843880200921 1.9999999999999998
    vertex -3.0086289605801544 5.211098220847965 1.9999999999999998
  endloop
endfacet
facet normal -0.13052619222005143 0.9914448613738106 0.0
  outer loop
    vertex -1.557380949290286 5.81222482949121 1.9999999999999998
    vertex -2.7318425299682757e-15 6.017257921160305 0.0
    vertex -1.557380949290286 5.81222482949121 0.0
  endloop
endfacet
facet normal -0.13052619222005143 0.9914448613738106 0.0
  outer loop
    vertex -2.7318425299682757e-15 6.017257921160305 0.0
    vertex -1.557380949290286 5.81222482949121 1.9999999999999998
    vertex -2.7318425299682757e-15 6.017257921160305 1.9999999999999998
  endloop
endfacet
facet normal 0.13052619222005166 0.9914448613738104 0.0
  outer loop
    vertex -2.7318425299682757e-15 6.017257921160305 1.9999999999999998
    vertex 1.5573809492902935 5.812224829491208 0.0
    vertex -2.7318425299682757e-15 6.017257921160305 0.0
  endloop
endfacet
facet normal 0.13052619222005166 0.9914448613738104 0.0
  outer loop
    vertex 1.5573809492902935 5.812224829491208 0.0
    vertex -2.7318425299682757e-15 6.017257921160305 1.9999999999999998
    vertex 1.5573809492902935 5.812224829491208 1.9999999999999998
  endloop
endfacet
facet normal -0.7933533402912349 0.6087614290087209 0.0
  outer loop
    vertex -4.254843880200918 4.254843880200921 1.9999999999999998
    vertex -5.211098220847962 3.008628960580157 0.0
    vertex -5.211098220847962 3.008628960580157 1.9999999999999998
  endloop
endfacet
facet normal -0.7933533402912349 0.6087614290087209 0.0
  outer loop
    vertex -5.211098220847962 3.008628960580157 0.0
    vertex -4.254843880200918 4.254843880200921 1.9999999999999998
    vertex -4.254843880200918 4.254843880200921 0.0
  endloop
endfacet
facet normal 0.0 0.0 -1.0
  outer loop
    vertex -5.812224829491207 1.5573809492902948 0.0
    vertex -5.812224829491208 -1.5573809492902926 0.0
    vertex -6.0172579211603034 1.4981071938535704e-15 0.0
  endloop
endfacet
facet normal 0.0 0.0 -1.0
  outer loop
    vertex -5.812224829491208 -1.5573809492902926 0.0
    vertex -5.812224829491207 1.5573809492902948 0.0
    vertex -5.2110982208479655 -3.0086289605801495 0.0
  endloop
endfacet
facet normal 0.0 0.0 -1.0
  outer loop
    vertex -5.2110982208479655 -3.0086289605801495 0.0
    vertex -5.812224829491207 1.5573809492902948 0.0
    vertex -5.211098220847962 3.008628960580157 0.0
  endloop
endfacet
facet normal 0.0 0.0 -1.0
  outer loop
    vertex -5.2110982208479655 -3.0086289605801495 0.0
    vertex -5.211098220847962 3.008628960580157 0.0
    vertex -4.254843880200919 -4.25484388020092 0.0
  endloop
endfacet
facet normal 0.0 0.0 -1.0
  outer loop
    vertex -4.254843880200919 -4.25484388020092 0.0
    vertex -5.211098220847962 3.008628960580157 0.0
    vertex -4.254843880200918 4.254843880200921 0.0
  endloop
endfacet
facet normal 0.0 0.0 -1.0
  outer loop
    vertex -4.254843880200919 -4.25484388020092 0.0
    vertex -4.254843880200918 4.254843880200921 0.0
    vertex -3.008628960580149 -5.211098220847967 0.0
  endloop
endfacet
facet normal 0.0 0.0 -1.0
  outer loop
    vertex -3.008628960580149 -5.211098220847967 0.0
    vertex -4.254843880200918 4.254843880200921 0.0
    vertex -3.0086289605801544 5.211098220847965 0.0
  endloop
endfacet
facet normal 0.0 0.0 -1.0
  outer loop
    vertex -3.008628960580149 -5.211098220847967 0.0
    vertex -3.0086289605801544 5.211098220847965 0.0
    vertex -1.557380949290286 5.81222482949121 0.0
  endloop
endfacet
facet normal 0.0 0.0 -1.0
  outer loop
    vertex -3.008628960580149 -5.211098220847967 0.0
    vertex -1.557380949290286 5.81222482949121 0.0
    vertex -1.9999999999999996 0.0 0.0
  endloop
endfacet
facet normal 0.0 0.0 -1.0
  outer loop
    vertex -1.9999999999999996 0.0 0.0
    vertex -1.557380949290286 5.81222482949121 0.0
    vertex -1.9318516525781357 0.517638090205043 0.0
  endloop
endfacet
facet normal 0.0 0.0 -1.0
  outer loop
    vertex -1.9318516525781357 0.517638090205043 0.0
    vertex -1.557380949290286 5.81222482949121 0.0
    vertex -1.7320508075688763 1.0000000000000009 0.0
  endloop
endfacet
facet normal 0.0 0.0 -1.0
  outer loop
    vertex -1.7320508075688763 1.0000000000000009 0.0
    vertex -1.557380949290286 5.81222482949121 0.0
    vertex -1.4142135623730943 1.4142135623730951 0.0
  endloop
endfacet
facet normal 0.0 0.0 -1.0
  outer loop
    vertex -1.4142135623730943 1.4142135623730951 0.0
    vertex -1.557380949290286 5.81222482949121 0.0
    vertex -2.7318425299682757e-15 6.017257921160305 0.0
  endloop
endfacet
facet normal 0.0 0.0 -1.0
  outer loop
    vertex -1.4142135623730943 1.4142135623730951 0.0
    vertex -2.7318425299682757e-15 6.017257921160305 0.0
    vertex -0.9999999999999983 1.732050807568878 0.0
  endloop
endfacet
facet normal 0.0 0.0 -1.0
  outer loop
    vertex -0.9999999999999983 1.732050807568878 0.0
    vertex -2.7318425299682757e-15 6.017257921160305 0.0
    vertex -0.5176380902050405 1.9318516525781366 0.0
  endloop
endfacet
facet normal 0.0 0.0 -1.0
  outer loop
    vertex -0.5176380902050405 1.9318516525781366 0.0
    vertex -2.7318425299682757e-15 6.017257921160305 0.0
    vertex 3.6739403974420584e-16 1.9999999999999998 0.0
  endloop
endfacet
facet normal 0.0 0.0 -1.0
  outer loop
    vertex 3.6739403974420584e-16 1.9999999999999998 0.0
    vertex -2.7318425299682757e-15 6.017257921160305 0.0
    vertex 1.5573809492902935 5.812224829491208 0.0
  endloop
endfacet
facet normal 0.0 0.0 -1.0
  outer loop
    vertex 3.6739403974420584e-16 1.9999999999999998 0.0
    vertex 1.5573809492902935 5.812224829491208 0.0
    vertex 0.5176380902050429 1.931851652578136 0.0
  endloop
endfacet
facet normal 0.0 0.0 -1.0
  outer loop
    vertex 0.5176380902050429 1.931851652578136 0.0
    vertex 1.5573809492902935 5.812224829491208 0.0
    vertex 1.0000000000000007 1.7320508075688765 0.0
  endloop
endfacet
facet normal 0.0 0.0 -1.0
  outer loop
    vertex 1.0000000000000007 1.7320508075688765 0.0
    vertex 1.5573809492902935 5.812224829491208 0.0
    vertex 1.4142135623730956 1.4142135623730943 0.0
  endloop
endfacet
facet normal 0.0 0.0 -1.0
  outer loop
    vertex 1.4142135623730956 1.4142135623730943 0.0
    vertex 1.5573809492902935 5.812224829491208 0.0
    vertex 1.7320508075688772 0.9999999999999994 0.0
  endloop
endfacet
facet normal 0.0 0.0 -1.0
  outer loop
    vertex 1.7320508075688772 0.9999999999999994 0.0
    vertex 1.5573809492902935 5.812224829491208 0.0
    vertex 3.0086289605801535 5.211098220847965 0.0
  endloop
endfacet
facet normal 0.0 0.0 -1.0
  outer loop
    vertex 1.7320508075688772 0.9999999999999994 0.0
    vertex 3.0086289605801535 5.211098220847965 0.0
    vertex 1.9318516525781364 0.5176380902050407 0.0
  endloop
endfacet
facet normal 0.0 0.0 -1.0
  outer loop
    vertex 1.9318516525781364 0.5176380902050407 0.0
    vertex 3.0086289605801535 5.211098220847965 0.0
    vertex 1.9999999999999996 -2.449293598294706e-16 0.0
  endloop
endfacet
facet normal 0.0 0.0 -1.0
  outer loop
    vertex 1.9999999999999996 -2.449293598294706e-16 0.0
    vertex 3.0086289605801535 5.211098220847965 0.0
    vertex 3.0086289605801486 -5.211098220847966 0.0
  endloop
endfacet
facet normal 0.0 0.0 -1.0
  outer loop
    vertex 3.0086289605801486 -5.211098220847966 0.0
    vertex 3.0086289605801535 5.211098220847965 0.0
    vertex 4.254843880200918 -4.254843880200921 0.0
  endloop
endfacet
facet normal 0.0 0.0 -1.0
  outer loop
    vertex 4.254843880200918 -4.254843880200921 0.0
    vertex 3.0086289605801535 5.211098220847965 0.0
    vertex 4.254843880200921 4.254843880200918 0.0
  endloop
endfacet
facet normal 0.0 0.0 -1.0
  outer loop
    vertex 4.254843880200918 -4.254843880200921 0.0
    vertex 4.254843880200921 4.254843880200918 0.0
    vertex 5.211098220847966 -3.0086289605801504 0.0
  endloop
endfacet
facet normal 0.0 0.0 -1.0
  outer loop
    vertex 5.211098220847966 -3.0086289605801504 0.0
    vertex 4.254843880200921 4.254843880200918 0.0
    vertex 5.211098220847967 3.0086289605801477 0.0
  endloop
endfacet
facet normal 0.0 0.0 -1.0
  outer loop
    vertex 5.211098220847966 -3.0086289605801504 0.0
    vertex 5.211098220847967 3.0086289605801477 0.0
    vertex 5.812224829491207 -1.557380949290295 0.0
  endloop
endfacet
facet normal 0.0 0.0 -1.0
  outer loop
    vertex 5.812224829491207 -1.557380949290295 0.0
    vertex 5.211098220847967 3.0086289605801477 0.0
    vertex 5.812224829491209 1.5573809492902906 0.0
  endloop
endfacet
facet normal 0.0 0.0 -1.0
  outer loop
    vertex 5.812224829491207 -1.557380949290295 0.0
    vertex 5.812224829491209 1.5573809492902906 0.0
    vertex 6.017257921160304 4.758693439299577e-15 0.0
  endloop
endfacet
facet normal 0.0 0.0 -1.0
  outer loop
    vertex -1.9999999999999996 0.0 0.0
    vertex -1.5573809492902926 -5.812224829491208 0.0
    vertex -3.008628960580149 -5.211098220847967 0.0
  endloop
endfacet
facet normal 0.0 0.0 -1.0
  outer loop
    vertex -1.5573809492902926 -5.812224829491208 0.0
    vertex -1.9999999999999996 0.0 0.0
    vertex -1.931851652578136 -0.5176380902050415 0.0
  endloop
endfacet
facet normal 0.0 0.0 -1.0
  outer loop
    vertex -1.5573809492902926 -5.812224829491208 0.0
    vertex -1.931851652578136 -0.5176380902050415 0.0
    vertex -1.732050807568877 -0.9999999999999998 0.0
  endloop
endfacet
facet normal 0.0 0.0 -1.0
  outer loop
    vertex -1.5573809492902926 -5.812224829491208 0.0
    vertex -1.732050807568877 -0.9999999999999998 0.0
    vertex -1.414213562373095 -1.414213562373095 0.0
  endloop
endfacet
facet normal 0.0 0.0 -1.0
  outer loop
    vertex -1.5573809492902926 -5.812224829491208 0.0
    vertex -1.414213562373095 -1.414213562373095 0.0
    vertex -1.1015494072452725e-15 -6.017257921160304 0.0
  endloop
endfacet
facet normal 0.0 0.0 -1.0
  outer loop
    vertex -1.1015494072452725e-15 -6.017257921160304 0.0
    vertex -1.414213562373095 -1.414213562373095 0.0
    vertex -0.9999999999999999 -1.732050807568877 0.0
  endloop
endfacet
facet normal 0.0 0.0 -1.0
  outer loop
    vertex -1.1015494072452725e-15 -6.017257921160304 0.0
    vertex -0.9999999999999999 -1.732050807568877 0.0
    vertex -0.5176380902050418 -1.9318516525781364 0.0
  endloop
endfacet
facet normal 0.0 0.0 -1.0
  outer loop
    vertex -1.1015494072452725e-15 -6.017257921160304 0.0
    vertex -0.5176380902050418 -1.9318516525781364 0.0
    vertex -1.224646799147353e-16 -1.9999999999999998 0.0
  endloop
endfacet
facet normal 0.0 0.0 -1.0
  outer loop
    vertex -1.1015494072452725e-15 -6.017257921160304 0.0
    vertex -1.224646799147353e-16 -1.9999999999999998 0.0
    vertex 1.557380949290283 -5.8122248294912096 0.0
  endloop
endfacet
facet normal 0.0 0.0 -1.0
  outer loop
    vertex 1.557380949290283 -5.8122248294912096 0.0
    vertex -1.224646799147353e-16 -1.9999999999999998 0.0
    vertex 0.5176380902050411 -1.9318516525781364 0.0
  endloop
endfacet
facet normal 0.0 0.0 -1.0
  outer loop
    vertex 1.557380949290283 -5.8122248294912096 0.0
    vertex 0.5176380902050411 -1.9318516525781364 0.0
    vertex 0.9999999999999992 -1.7320508075688772 0.0
  endloop
endfacet
facet normal 0.0 0.0 -1.0
  outer loop
    vertex 1.557380949290283 -5.8122248294912096 0.0
    vertex 0.9999999999999992 -1.7320508075688772 0.0
    vertex 1.4142135623730947 -1.4142135623730951 0.0
  endloop
endfacet
facet normal 0.0 0.0 -1.0
  outer loop
    vertex 1.557380949290283 -5.8122248294912096 0.0
    vertex 1.4142135623730947 -1.4142135623730951 0.0
    vertex 1.7320508075688765 -1.0000000000000007 0.0
  endloop
endfacet
facet normal 0.0 0.0 -1.0
  outer loop
    vertex 1.557380949290283 -5.8122248294912096 0.0
    vertex 1.7320508075688765 -1.0000000000000007 0.0
    vertex 3.0086289605801486 -5.211098220847966 0.0
  endloop
endfacet
facet normal 0.0 0.0 -1.0
  outer loop
    vertex 3.0086289605801486 -5.211098220847966 0.0
    vertex 1.7320508075688765 -1.0000000000000007 0.0
    vertex 1.931851652578136 -0.517638090205042 0.0
  endloop
endfacet
facet normal 0.0 0.0 -1.0
  outer loop
    vertex 3.0086289605801486 -5.211098220847966 0.0
    vertex 1.931851652578136 -0.517638090205042 0.0
    vertex 1.9999999999999996 -2.449293598294706e-16 0.0
  endloop
endfacet
facet normal 0.7933533402912352 -0.6087614290087209 -0.0
  outer loop
    vertex 3.464101615137753 -2.0000000000000013 1.9999999999999998
    vertex 2.8284271247461894 -2.8284271247461903 20.0
    vertex 2.8284271247461894 -2.8284271247461903 1.9999999999999998
  endloop
endfacet
facet normal 0.7933533402912352 -0.6087614290087209 -0.0
  outer loop
    vertex 2.8284271247461894 -2.8284271247461903 20.0
    vertex 3.464101615137753 -2.0000000000000013 1.9999999999999998
    vertex 3.464101615137753 -2.0000000000000013 20.0
  endloop
endfacet
facet normal 0.9238795325112867 -0.3826834323650899 -0.0
  outer loop
    vertex 3.863703305156272 -1.035276180410084 1.9999999999999998
    vertex 3.464101615137753 -2.0000000000000013 20.0
    vertex 3.464101615137753 -2.0000000000000013 1.9999999999999998
  endloop
endfacet
facet normal 0.9238795325112867 -0.3826834323650899 -0.0
  outer loop
    vertex 3.464101615137753 -2.0000000000000013 20.0
    vertex 3.863703305156272 -1.035276180410084 1.9999999999999998
    vertex 3.863703305156272 -1.035276180410084 20.0
  endloop
endfacet
facet normal -0.1305261922200513 0.9914448613738105 -5.076523026821995e-34
  outer loop
    vertex -1.035276180410081 3.8637033051562732 20.0
    vertex 7.347880794884117e-16 3.9999999999999996 1.9999999999999998
    vertex -1.035276180410081 3.8637033051562732 1.9999999999999998
  endloop
endfacet
facet normal -0.1305261922200513 0.9914448613738105 -5.076523026821995e-34
  outer loop
    vertex 7.347880794884117e-16 3.9999999999999996 1.9999999999999998
    vertex -1.035276180410081 3.8637033051562732 20.0
    vertex 7.347880794884117e-16 3.9999999999999996 20.0
  endloop
endfacet
facet normal -0.3826834323650905 -0.9238795325112865 -0.0
  outer loop
    vertex 1.0000000000000007 1.7320508075688765 20.0
    vertex 0.5176380902050429 1.931851652578136 0.0
    vertex 1.0000000000000007 1.7320508075688765 0.0
  endloop
endfacet
facet normal -0.3826834323650905 -0.9238795325112865 -0.0
  outer loop
    vertex 0.5176380902050429 1.931851652578136 0.0
    vertex 1.0000000000000007 1.7320508075688765 20.0
    vertex 0.5176380902050429 1.931851652578136 20.0
  endloop
endfacet
facet normal 0.7933533402912354 0.6087614290087203 -5.148172996053981e-34
  outer loop
    vertex 2.828427124746191 2.8284271247461885 1.9999999999999998
    vertex 3.4641016151377544 1.999999999999999 20.0
    vertex 3.4641016151377544 1.999999999999999 1.9999999999999998
  endloop
endfacet
facet normal 0.7933533402912354 0.6087614290087203 -5.148172996053981e-34
  outer loop
    vertex 3.4641016151377544 1.999999999999999 20.0
    vertex 2.828427124746191 2.8284271247461885 1.9999999999999998
    vertex 2.828427124746191 2.8284271247461885 20.0
  endloop
endfacet
facet normal -0.9238795325112865 0.38268343236509067 -7.989216356144221e-19
  outer loop
    vertex -3.4641016151377526 2.0000000000000018 20.0
    vertex -3.8637033051562715 1.035276180410086 1.9999999999999998
    vertex -3.8637033051562715 1.035276180410086 20.0
  endloop
endfacet
facet normal -0.9238795325112865 0.38268343236509067 -7.989216356144221e-19
  outer loop
    vertex -3.8637033051562715 1.035276180410086 1.9999999999999998
    vertex -3.4641016151377526 2.0000000000000018 20.0
    vertex -3.4641016151377526 2.0000000000000018 1.9999999999999998
  endloop
endfacet
facet normal 0.793353340291235 -0.6087614290087208 0.0
  outer loop
    vertex -1.4142135623730943 1.4142135623730951 0.0
    vertex -1.7320508075688763 1.0000000000000009 20.0
    vertex -1.7320508075688763 1.0000000000000009 0.0
  endloop
endfacet
facet normal 0.793353340291235 -0.6087614290087208 0.0
  outer loop
    vertex -1.7320508075688763 1.0000000000000009 20.0
    vertex -1.4142135623730943 1.4142135623730951 0.0
    vertex -1.4142135623730943 1.4142135623730951 20.0
  endloop
endfacet
facet normal 0.6087614290087203 -0.7933533402912356 -4.0622294363539996e-34
  outer loop
    vertex 2.8284271247461894 -2.8284271247461903 20.0
    vertex 1.9999999999999984 -3.4641016151377544 1.9999999999999998
    vertex 2.8284271247461894 -2.8284271247461903 1.9999999999999998
  endloop
endfacet
facet normal 0.6087614290087203 -0.7933533402912356 -4.0622294363539996e-34
  outer loop
    vertex 1.9999999999999984 -3.4641016151377544 1.9999999999999998
    vertex 2.8284271247461894 -2.8284271247461903 20.0
    vertex 1.9999999999999984 -3.4641016151377544 20.0
  endloop
endfacet
facet normal 0.6087614290087204 -0.7933533402912355 0.0
  outer loop
    vertex -0.9999999999999983 1.732050807568878 20.0
    vertex -1.4142135623730943 1.4142135623730951 0.0
    vertex -0.9999999999999983 1.732050807568878 0.0
  endloop
endfacet
facet normal 0.6087614290087204 -0.7933533402912355 0.0
  outer loop
    vertex -1.4142135623730943 1.4142135623730951 0.0
    vertex -0.9999999999999983 1.732050807568878 20.0
    vertex -1.4142135623730943 1.4142135623730951 20.0
  endloop
endfacet
facet normal -0.6087614290087205 -0.7933533402912353 -1.052848687405418e-18
  outer loop
    vertex -1.9999999999999998 -3.464101615137754 20.0
    vertex -2.82842712474619 -2.82842712474619 1.9999999999999998
    vertex -1.9999999999999998 -3.464101615137754 1.9999999999999998
  endloop
endfacet
facet normal -0.6087614290087205 -0.7933533402912353 -1.052848687405418e-18
  outer loop
    vertex -2.82842712474619 -2.82842712474619 1.9999999999999998
    vertex -1.9999999999999998 -3.464101615137754 20.0
    vertex -2.82842712474619 -2.82842712474619 20.0
  endloop
endfacet
facet normal -0.7933533402912354 -0.6087614290087203 -8.083159368649058e-19
  outer loop
    vertex -3.464101615137754 -1.9999999999999996 20.0
    vertex -2.82842712474619 -2.82842712474619 1.9999999999999998
    vertex -2.82842712474619 -2.82842712474619 20.0
  endloop
endfacet
facet normal -0.7933533402912354 -0.6087614290087203 -8.083159368649058e-19
  outer loop
    vertex -2.82842712474619 -2.82842712474619 1.9999999999999998
    vertex -3.464101615137754 -1.9999999999999996 20.0
    vertex -3.464101615137754 -1.9999999999999996 1.9999999999999998
  endloop
endfacet
facet normal 0.13052619222005182 -0.9914448613738105 1.504960986930281e-19
  outer loop
    vertex 1.0352761804100823 -3.863703305156273 20.0
    vertex -2.449293598294706e-16 -3.9999999999999996 1.9999999999999998
    vertex 1.0352761804100823 -3.863703305156273 1.9999999999999998
  endloop
endfacet
facet normal 0.13052619222005182 -0.9914448613738105 1.504960986930281e-19
  outer loop
    vertex -2.449293598294706e-16 -3.9999999999999996 1.9999999999999998
    vertex 1.0352761804100823 -3.863703305156273 20.0
    vertex -2.449293598294706e-16 -3.9999999999999996 20.0
  endloop
endfacet
facet normal 0.9238795325112865 -0.3826834323650905 0.0
  outer loop
    vertex -1.7320508075688763 1.0000000000000009 0.0
    vertex -1.9318516525781357 0.517638090205043 20.0
    vertex -1.9318516525781357 0.517638090205043 0.0
  endloop
endfacet
facet normal 0.9238795325112865 -0.3826834323650905 0.0
  outer loop
    vertex -1.9318516525781357 0.517638090205043 20.0
    vertex -1.7320508075688763 1.0000000000000009 0.0
    vertex -1.7320508075688763 1.0000000000000009 20.0
  endloop
endfacet
facet normal -0.0 -0.0 1.0
  outer loop
    vertex -1.9999999999999998 -3.464101615137754 20.0
    vertex -1.931851652578136 -0.5176380902050415 20.0
    vertex -1.9999999999999996 0.0 20.0
  endloop
endfacet
facet normal -0.0 -0.0 1.0
  outer loop
    vertex -1.931851652578136 -0.5176380902050415 20.0
    vertex -1.9999999999999998 -3.464101615137754 20.0
    vertex -1.0352761804100836 -3.863703305156273 20.0
  endloop
endfacet
facet normal -0.0 -0.0 1.0
  outer loop
    vertex -1.931851652578136 -0.5176380902050415 20.0
    vertex -1.0352761804100836 -3.863703305156273 20.0
    vertex -1.732050807568877 -0.9999999999999998 20.0
  endloop
endfacet
facet normal -0.0 -0.0 1.0
  outer loop
    vertex -1.732050807568877 -0.9999999999999998 20.0
    vertex -1.0352761804100836 -3.863703305156273 20.0
    vertex -1.414213562373095 -1.414213562373095 20.0
  endloop
endfacet
facet normal -0.0 -0.0 1.0
  outer loop
    vertex -1.414213562373095 -1.414213562373095 20.0
    vertex -1.0352761804100836 -3.863703305156273 20.0
    vertex -0.9999999999999999 -1.732050807568877 20.0
  endloop
endfacet
facet normal -0.0 -0.0 1.0
  outer loop
    vertex -0.9999999999999999 -1.732050807568877 20.0
    vertex -1.0352761804100836 -3.863703305156273 20.0
    vertex -2.449293598294706e-16 -3.9999999999999996 20.0
  endloop
endfacet
facet normal -0.0 -0.0 1.0
  outer loop
    vertex -0.9999999999999999 -1.732050807568877 20.0
    vertex -2.449293598294706e-16 -3.9999999999999996 20.0
    vertex -0.5176380902050418 -1.9318516525781364 20.0
  endloop
endfacet
facet normal -0.0 -0.0 1.0
  outer loop
    vertex -0.5176380902050418 -1.9318516525781364 20.0
    vertex -2.449293598294706e-16 -3.9999999999999996 20.0
    vertex -1.224646799147353e-16 -1.9999999999999998 20.0
  endloop
endfacet
facet normal -0.0 -0.0 1.0
  outer loop
    vertex -1.224646799147353e-16 -1.9999999999999998 20.0
    vertex -2.449293598294706e-16 -3.9999999999999996 20.0
    vertex 1.0352761804100823 -3.863703305156273 20.0
  endloop
endfacet
facet normal -0.0 -0.0 1.0
  outer loop
    vertex -1.224646799147353e-16 -1.9999999999999998 20.0
    vertex 1.0352761804100823 -3.863703305156273 20.0
    vertex 0.5176380902050411 -1.9318516525781364 20.0
  endloop
endfacet
facet normal -0.0 -0.0 1.0
  outer loop
    vertex 0.5176380902050411 -1.9318516525781364 20.0
    vertex 1.0352761804100823 -3.863703305156273 20.0
    vertex 0.9999999999999992 -1.7320508075688772 20.0
  endloop
endfacet
facet normal -0.0 -0.0 1.0
  outer loop
    vertex 0.9999999999999992 -1.7320508075688772 20.0
    vertex 1.0352761804100823 -3.863703305156273 20.0
    vertex 1.4142135623730947 -1.4142135623730951 20.0
  endloop
endfacet
facet normal -0.0 -0.0 1.0
  outer loop
    vertex 1.4142135623730947 -1.4142135623730951 20.0
    vertex 1.0352761804100823 -3.863703305156273 20.0
    vertex 1.9999999999999984 -3.4641016151377544 20.0
  endloop
endfacet
facet normal -0.0 -0.0 1.0
  outer loop
    vertex 1.4142135623730947 -1.4142135623730951 20.0
    vertex 1.9999999999999984 -3.4641016151377544 20.0
    vertex 1.7320508075688765 -1.0000000000000007 20.0
  endloop
endfacet
facet normal -0.0 -0.0 1.0
  outer loop
    vertex 1.7320508075688765 -1.0000000000000007 20.0
    vertex 1.9999999999999984 -3.4641016151377544 20.0
    vertex 1.931851652578136 -0.517638090205042 20.0
  endloop
endfacet
facet normal -0.0 -0.0 1.0
  outer loop
    vertex 1.931851652578136 -0.517638090205042 20.0
    vertex 1.9999999999999984 -3.4641016151377544 20.0
    vertex 1.9999999999999996 -2.449293598294706e-16 20.0
  endloop
endfacet
facet normal -0.0 -0.0 1.0
  outer loop
    vertex 1.9999999999999996 -2.449293598294706e-16 20.0
    vertex 1.9999999999999984 -3.4641016151377544 20.0
    vertex 2.8284271247461894 -2.8284271247461903 20.0
  endloop
endfacet
facet normal -0.0 -0.0 1.0
  outer loop
    vertex 1.9999999999999996 -2.449293598294706e-16 20.0
    vertex 2.8284271247461894 -2.8284271247461903 20.0
    vertex 2.0000000000000013 3.464101615137753 20.0
  endloop
endfacet
facet normal -0.0 -0.0 1.0
  outer loop
    vertex 2.0000000000000013 3.464101615137753 20.0
    vertex 2.8284271247461894 -2.8284271247461903 20.0
    vertex 2.828427124746191 2.8284271247461885 20.0
  endloop
endfacet
facet normal -0.0 -0.0 1.0
  outer loop
    vertex 2.828427124746191 2.8284271247461885 20.0
    vertex 2.8284271247461894 -2.8284271247461903 20.0
    vertex 3.464101615137753 -2.0000000000000013 20.0
  endloop
endfacet
facet normal -0.0 -0.0 1.0
  outer loop
    vertex 2.828427124746191 2.8284271247461885 20.0
    vertex 3.464101615137753 -2.0000000000000013 20.0
    vertex 3.4641016151377544 1.999999999999999 20.0
  endloop
endfacet
facet normal -0.0 -0.0 1.0
  outer loop
    vertex 3.4641016151377544 1.999999999999999 20.0
    vertex 3.464101615137753 -2.0000000000000013 20.0
    vertex 3.863703305156272 -1.035276180410084 20.0
  endloop
endfacet
facet normal -0.0 -0.0 1.0
  outer loop
    vertex 3.4641016151377544 1.999999999999999 20.0
    vertex 3.863703305156272 -1.035276180410084 20.0
    vertex 3.863703305156273 1.0352761804100814 20.0
  endloop
endfacet
facet normal -0.0 -0.0 1.0
  outer loop
    vertex 3.863703305156273 1.0352761804100814 20.0
    vertex 3.863703305156272 -1.035276180410084 20.0
    vertex 3.999999999999999 -4.898587196589412e-16 20.0
  endloop
endfacet
facet normal -0.0 -0.0 1.0
  outer loop
    vertex -3.863703305156272 -1.035276180410083 20.0
    vertex -3.8637033051562715 1.035276180410086 20.0
    vertex -3.999999999999999 0.0 20.0
  endloop
endfacet
facet normal -0.0 -0.0 1.0
  outer loop
    vertex -3.8637033051562715 1.035276180410086 20.0
    vertex -3.863703305156272 -1.035276180410083 20.0
    vertex -3.464101615137754 -1.9999999999999996 20.0
  endloop
endfacet
facet normal -0.0 -0.0 1.0
  outer loop
    vertex -3.8637033051562715 1.035276180410086 20.0
    vertex -3.464101615137754 -1.9999999999999996 20.0
    vertex -3.4641016151377526 2.0000000000000018 20.0
  endloop
endfacet
facet normal -0.0 -0.0 1.0
  outer loop
    vertex -3.4641016151377526 2.0000000000000018 20.0
    vertex -3.464101615137754 -1.9999999999999996 20.0
    vertex -2.82842712474619 -2.82842712474619 20.0
  endloop
endfacet
facet normal -0.0 -0.0 1.0
  outer loop
    vertex -3.4641016151377526 2.0000000000000018 20.0
    vertex -2.82842712474619 -2.82842712474619 20.0
    vertex -2.8284271247461885 2.8284271247461903 20.0
  endloop
endfacet
facet normal -0.0 -0.0 1.0
  outer loop
    vertex -2.8284271247461885 2.8284271247461903 20.0
    vertex -2.82842712474619 -2.82842712474619 20.0
    vertex -1.9999999999999998 -3.464101615137754 20.0
  endloop
endfacet
facet normal -0.0 -0.0 1.0
  outer loop
    vertex -2.8284271247461885 2.8284271247461903 20.0
    vertex -1.9999999999999998 -3.464101615137754 20.0
    vertex -1.9999999999999996 0.0 20.0
  endloop
endfacet
facet normal -0.0 -0.0 1.0
  outer loop
    vertex -2.8284271247461885 2.8284271247461903 20.0
    vertex -1.9999999999999996 0.0 20.0
    vertex -1.9999999999999967 3.464101615137756 20.0
  endloop
endfacet
facet normal -0.0 -0.0 1.0
  outer loop
    vertex -1.9999999999999967 3.464101615137756 20.0
    vertex -1.9999999999999996 0.0 20.0
    vertex -1.9318516525781357 0.517638090205043 20.0
  endloop
endfacet
facet normal -0.0 -0.0 1.0
  outer loop
    vertex -1.9999999999999967 3.464101615137756 20.0
    vertex -1.9318516525781357 0.517638090205043 20.0
    vertex -1.035276180410081 3.8637033051562732 20.0
  endloop
endfacet
facet normal -0.0 -0.0 1.0
  outer loop
    vertex -1.035276180410081 3.8637033051562732 20.0
    vertex -1.9318516525781357 0.517638090205043 20.0
    vertex -1.7320508075688763 1.0000000000000009 20.0
  endloop
endfacet
facet normal -0.0 -0.0 1.0
  outer loop
    vertex -1.035276180410081 3.8637033051562732 20.0
    vertex -1.7320508075688763 1.0000000000000009 20.0
    vertex -1.4142135623730943 1.4142135623730951 20.0
  endloop
endfacet
facet normal -0.0 -0.0 1.0
  outer loop
    vertex -1.035276180410081 3.8637033051562732 20.0
    vertex -1.4142135623730943 1.4142135623730951 20.0
    vertex -0.9999999999999983 1.732050807568878 20.0
  endloop
endfacet
facet normal -0.0 -0.0 1.0
  outer loop
    vertex -1.035276180410081 3.8637033051562732 20.0
    vertex -0.9999999999999983 1.732050807568878 20.0
    vertex 7.347880794884117e-16 3.9999999999999996 20.0
  endloop
endfacet
facet normal -0.0 -0.0 1.0
  outer loop
    vertex 7.347880794884117e-16 3.9999999999999996 20.0
    vertex -0.9999999999999983 1.732050807568878 20.0
    vertex -0.5176380902050405 1.9318516525781366 20.0
  endloop
endfacet
facet normal -0.0 -0.0 1.0
  outer loop
    vertex 7.347880794884117e-16 3.9999999999999996 20.0
    vertex -0.5176380902050405 1.9318516525781366 20.0
    vertex 3.6739403974420584e-16 1.9999999999999998 20.0
  endloop
endfacet
facet normal -0.0 -0.0 1.0
  outer loop
    vertex 7.347880794884117e-16 3.9999999999999996 20.0
    vertex 3.6739403974420584e-16 1.9999999999999998 20.0
    vertex 0.5176380902050429 1.931851652578136 20.0
  endloop
endfacet
facet normal -0.0 -0.0 1.0
  outer loop
    vertex 7.347880794884117e-16 3.9999999999999996 20.0
    vertex 0.5176380902050429 1.931851652578136 20.0
    vertex 1.0352761804100858 3.863703305156272 20.0
  endloop
endfacet
facet normal -0.0 -0.0 1.0
  outer loop
    vertex 1.0352761804100858 3.863703305156272 20.0
    vertex 0.5176380902050429 1.931851652578136 20.0
    vertex 1.0000000000000007 1.7320508075688765 20.0
  endloop
endfacet
facet normal -0.0 -0.0 1.0
  outer loop
    vertex 1.0352761804100858 3.863703305156272 20.0
    vertex 1.0000000000000007 1.7320508075688765 20.0
    vertex 1.4142135623730956 1.4142135623730943 20.0
  endloop
endfacet
facet normal -0.0 -0.0 1.0
  outer loop
    vertex 1.0352761804100858 3.863703305156272 20.0
    vertex 1.4142135623730956 1.4142135623730943 20.0
    vertex 2.0000000000000013 3.464101615137753 20.0
  endloop
endfacet
facet normal -0.0 -0.0 1.0
  outer loop
    vertex 2.0000000000000013 3.464101615137753 20.0
    vertex 1.4142135623730956 1.4142135623730943 20.0
    vertex 1.7320508075688772 0.9999999999999994 20.0
  endloop
endfacet
facet normal -0.0 -0.0 1.0
  outer loop
    vertex 2.0000000000000013 3.464101615137753 20.0
    vertex 1.7320508075688772 0.9999999999999994 20.0
    vertex 1.9318516525781364 0.5176380902050407 20.0
  endloop
endfacet
facet normal -0.0 -0.0 1.0
  outer loop
    vertex 2.0000000000000013 3.464101615137753 20.0
    vertex 1.9318516525781364 0.5176380902050407 20.0
    vertex 1.9999999999999996 -2.449293598294706e-16 20.0
  endloop
endfacet
facet normal 0.608761429008721 0.7933533402912349 -5.954823130089854e-19
  outer loop
    vertex 2.0000000000000013 3.464101615137753 20.0
    vertex 2.828427124746191 2.8284271247461885 1.9999999999999998
    vertex 2.0000000000000013 3.464101615137753 1.9999999999999998
  endloop
endfacet
facet normal 0.608761429008721 0.7933533402912349 -5.954823130089854e-19
  outer loop
    vertex 2.828427124746191 2.8284271247461885 1.9999999999999998
    vertex 2.0000000000000013 3.464101615137753 20.0
    vertex 2.828427124746191 2.8284271247461885 20.0
  endloop
endfacet
facet normal 0.9238795325112871 0.3826834323650893 -9.138218808323074e-20
  outer loop
    vertex 3.4641016151377544 1.999999999999999 1.9999999999999998
    vertex 3.863703305156273 1.0352761804100814 20.0
    vertex 3.863703305156273 1.0352761804100814 1.9999999999999998
  endloop
endfacet
facet normal 0.9238795325112871 0.3826834323650893 -9.138218808323074e-20
  outer loop
    vertex 3.863703305156273 1.0352761804100814 20.0
    vertex 3.4641016151377544 1.999999999999999 1.9999999999999998
    vertex 3.4641016151377544 1.999999999999999 20.0
  endloop
endfacet
facet normal 0.9914448613738105 0.13052619222005124 -5.076523026821995e-34
  outer loop
    vertex 3.863703305156273 1.0352761804100814 1.9999999999999998
    vertex 3.999999999999999 -4.898587196589412e-16 20.0
    vertex 3.999999999999999 -4.898587196589412e-16 1.9999999999999998
  endloop
endfacet
facet normal 0.9914448613738105 0.13052619222005124 -5.076523026821995e-34
  outer loop
    vertex 3.999999999999999 -4.898587196589412e-16 20.0
    vertex 3.863703305156273 1.0352761804100814 1.9999999999999998
    vertex 3.863703305156273 1.0352761804100814 20.0
  endloop
endfacet
facet normal 0.9914448613738105 -0.1305261922200517 -1.0320130287529253e-33
  outer loop
    vertex 3.999999999999999 -4.898587196589412e-16 1.9999999999999998
    vertex 3.863703305156272 -1.035276180410084 20.0
    vertex 3.863703305156272 -1.035276180410084 1.9999999999999998
  endloop
endfacet
facet normal 0.9914448613738105 -0.1305261922200517 -1.0320130287529253e-33
  outer loop
    vertex 3.863703305156272 -1.035276180410084 20.0
    vertex 3.999999999999999 -4.898587196589412e-16 1.9999999999999998
    vertex 3.999999999999999 -4.898587196589412e-16 20.0
  endloop
endfacet
facet normal -0.9914448613738105 0.13052619222005205 -5.076523026821995e-34
  outer loop
    vertex -3.8637033051562715 1.035276180410086 20.0
    vertex -3.999999999999999 0.0 1.9999999999999998
    vertex -3.999999999999999 0.0 20.0
  endloop
endfacet
facet normal -0.9914448613738105 0.13052619222005205 -5.076523026821995e-34
  outer loop
    vertex -3.999999999999999 0.0 1.9999999999999998
    vertex -3.8637033051562715 1.035276180410086 20.0
    vertex -3.8637033051562715 1.035276180410086 1.9999999999999998
  endloop
endfacet
facet normal -0.13052619222005168 -0.9914448613738105 -1.0208740798272411e-33
  outer loop
    vertex -2.449293598294706e-16 -3.9999999999999996 20.0
    vertex -1.0352761804100836 -3.863703305156273 1.9999999999999998
    vertex -2.449293598294706e-16 -3.9999999999999996 1.9999999999999998
  endloop
endfacet
facet normal -0.13052619222005168 -0.9914448613738105 -1.0208740798272411e-33
  outer loop
    vertex -1.0352761804100836 -3.863703305156273 1.9999999999999998
    vertex -2.449293598294706e-16 -3.9999999999999996 20.0
    vertex -1.0352761804100836 -3.863703305156273 20.0
  endloop
endfacet
facet normal -0.9914448613738105 -0.13052619222005174 -1.015304605364399e-33
  outer loop
    vertex -3.999999999999999 0.0 20.0
    vertex -3.863703305156272 -1.035276180410083 1.9999999999999998
    vertex -3.863703305156272 -1.035276180410083 20.0
  endloop
endfacet
facet normal -0.9914448613738105 -0.13052619222005174 -1.015304605364399e-33
  outer loop
    vertex -3.863703305156272 -1.035276180410083 1.9999999999999998
    vertex -3.999999999999999 0.0 20.0
    vertex -3.999999999999999 0.0 1.9999999999999998
  endloop
endfacet
facet normal -0.7933533402912352 0.6087614290087207 -4.573663743964335e-19
  outer loop
    vertex -2.8284271247461885 2.8284271247461903 20.0
    vertex -3.4641016151377526 2.0000000000000018 1.9999999999999998
    vertex -3.4641016151377526 2.0000000000000018 20.0
  endloop
endfacet
facet normal -0.7933533402912352 0.6087614290087207 -4.573663743964335e-19
  outer loop
    vertex -3.4641016151377526 2.0000000000000018 1.9999999999999998
    vertex -2.8284271247461885 2.8284271247461903 20.0
    vertex -2.8284271247461885 2.8284271247461903 1.9999999999999998
  endloop
endfacet
facet normal -0.6087614290087203 0.7933533402912354 -3.509495624684727e-19
  outer loop
    vertex -2.8284271247461885 2.8284271247461903 20.0
    vertex -1.9999999999999967 3.464101615137756 1.9999999999999998
    vertex -2.8284271247461885 2.8284271247461903 1.9999999999999998
  endloop
endfacet
facet normal -0.6087614290087203 0.7933533402912354 -3.509495624684727e-19
  outer loop
    vertex -1.9999999999999967 3.464101615137756 1.9999999999999998
    vertex -2.8284271247461885 2.8284271247461903 20.0
    vertex -1.9999999999999967 3.464101615137756 20.0
  endloop
endfacet
facet normal -0.38268343236508934 0.9238795325112871 2.6630721187147386e-19
  outer loop
    vertex -1.9999999999999967 3.464101615137756 20.0
    vertex -1.035276180410081 3.8637033051562732 1.9999999999999998
    vertex -1.9999999999999967 3.464101615137756 1.9999999999999998
  endloop
endfacet
facet normal -0.38268343236508934 0.9238795325112871 2.6630721187147386e-19
  outer loop
    vertex -1.035276180410081 3.8637033051562732 1.9999999999999998
    vertex -1.9999999999999967 3.464101615137756 20.0
    vertex -1.035276180410081 3.8637033051562732 20.0
  endloop
endfacet
facet normal 0.3826834323650897 -0.9238795325112868 -5.32614423742949e-19
  outer loop
    vertex 1.9999999999999984 -3.4641016151377544 20.0
    vertex 1.0352761804100823 -3.863703305156273 1.9999999999999998
    vertex 1.9999999999999984 -3.4641016151377544 1.9999999999999998
  endloop
endfacet
facet normal 0.3826834323650897 -0.9238795325112868 -5.32614423742949e-19
  outer loop
    vertex 1.0352761804100823 -3.863703305156273 1.9999999999999998
    vertex 1.9999999999999984 -3.4641016151377544 20.0
    vertex 1.0352761804100823 -3.863703305156273 20.0
  endloop
endfacet
facet normal -0.9238795325112868 -0.38268343236508967 -4.412322356597194e-19
  outer loop
    vertex -3.863703305156272 -1.035276180410083 20.0
    vertex -3.464101615137754 -1.9999999999999996 1.9999999999999998
    vertex -3.464101615137754 -1.9999999999999996 20.0
  endloop
endfacet
facet normal -0.9238795325112868 -0.38268343236508967 -4.412322356597194e-19
  outer loop
    vertex -3.464101615137754 -1.9999999999999996 1.9999999999999998
    vertex -3.863703305156272 -1.035276180410083 20.0
    vertex -3.863703305156272 -1.035276180410083 1.9999999999999998
  endloop
endfacet
facet normal -0.38268343236509034 -0.9238795325112867 -7.989216356144222e-19
  outer loop
    vertex -1.0352761804100836 -3.863703305156273 20.0
    vertex -1.9999999999999998 -3.464101615137754 1.9999999999999998
    vertex -1.0352761804100836 -3.863703305156273 1.9999999999999998
  endloop
endfacet
facet normal -0.38268343236509034 -0.9238795325112867 -7.989216356144222e-19
  outer loop
    vertex -1.9999999999999998 -3.464101615137754 1.9999999999999998
    vertex -1.0352761804100836 -3.863703305156273 20.0
    vertex -1.9999999999999998 -3.464101615137754 20.0
  endloop
endfacet
facet normal -0.13052619222005216 -0.9914448613738104 -0.0
  outer loop
    vertex 0.5176380902050429 1.931851652578136 20.0
    vertex 3.6739403974420584e-16 1.9999999999999998 0.0
    vertex 0.5176380902050429 1.931851652578136 0.0
  endloop
endfacet
facet normal -0.13052619222005216 -0.9914448613738104 -0.0
  outer loop
    vertex 3.6739403974420584e-16 1.9999999999999998 0.0
    vertex 0.5176380902050429 1.931851652578136 20.0
    vertex 3.6739403974420584e-16 1.9999999999999998 20.0
  endloop
endfacet
facet normal 0.13052619222005127 -0.9914448613738106 0.0
  outer loop
    vertex 3.6739403974420584e-16 1.9999999999999998 20.0
    vertex -0.5176380902050405 1.9318516525781366 0.0
    vertex 3.6739403974420584e-16 1.9999999999999998 0.0
  endloop
endfacet
facet normal 0.13052619222005127 -0.9914448613738106 0.0
  outer loop
    vertex -0.5176380902050405 1.9318516525781366 0.0
    vertex 3.6739403974420584e-16 1.9999999999999998 20.0
    vertex -0.5176380902050405 1.9318516525781366 20.0
  endloop
endfacet
facet normal 0.13052619222005218 0.9914448613738105 -5.076523026821995e-34
  outer loop
    vertex 7.347880794884117e-16 3.9999999999999996 20.0
    vertex 1.0352761804100858 3.863703305156272 1.9999999999999998
    vertex 7.347880794884117e-16 3.9999999999999996 1.9999999999999998
  endloop
endfacet
facet normal 0.13052619222005218 0.9914448613738105 -5.076523026821995e-34
  outer loop
    vertex 1.0352761804100858 3.863703305156272 1.9999999999999998
    vertex 7.347880794884117e-16 3.9999999999999996 20.0
    vertex 1.0352761804100858 3.863703305156272 20.0
  endloop
endfacet
facet normal 0.3826834323650892 -0.923879532511287 0.0
  outer loop
    vertex -0.5176380902050405 1.9318516525781366 20.0
    vertex -0.9999999999999983 1.732050807568878 0.0
    vertex -0.5176380902050405 1.9318516525781366 0.0
  endloop
endfacet
facet normal 0.3826834323650892 -0.923879532511287 0.0
  outer loop
    vertex -0.9999999999999983 1.732050807568878 0.0
    vertex -0.5176380902050405 1.9318516525781366 20.0
    vertex -0.9999999999999983 1.732050807568878 20.0
  endloop
endfacet
facet normal 0.3826834323650905 0.9238795325112865 4.412322356597198e-19
  outer loop
    vertex 1.0352761804100858 3.863703305156272 20.0
    vertex 2.0000000000000013 3.464101615137753 1.9999999999999998
    vertex 1.0352761804100858 3.863703305156272 1.9999999999999998
  endloop
endfacet
facet normal 0.3826834323650905 0.9238795325112865 4.412322356597198e-19
  outer loop
    vertex 2.0000000000000013 3.464101615137753 1.9999999999999998
    vertex 1.0352761804100858 3.863703305156272 20.0
    vertex 2.0000000000000013 3.464101615137753 20.0
  endloop
endfacet
facet normal -0.7933533402912355 -0.6087614290087203 -0.0
  outer loop
    vertex 1.4142135623730956 1.4142135623730943 20.0
    vertex 1.7320508075688772 0.9999999999999994 0.0
    vertex 1.7320508075688772 0.9999999999999994 20.0
  endloop
endfacet
facet normal -0.7933533402912355 -0.6087614290087203 -0.0
  outer loop
    vertex 1.7320508075688772 0.9999999999999994 0.0
    vertex 1.4142135623730956 1.4142135623730943 20.0
    vertex 1.4142135623730956 1.4142135623730943 0.0
  endloop
endfacet
facet normal -0.6087614290087209 -0.7933533402912349 -0.0
  outer loop
    vertex 1.4142135623730956 1.4142135623730943 20.0
    vertex 1.0000000000000007 1.7320508075688765 0.0
    vertex 1.4142135623730956 1.4142135623730943 0.0
  endloop
endfacet
facet normal -0.6087614290087209 -0.7933533402912349 -0.0
  outer loop
    vertex 1.0000000000000007 1.7320508075688765 0.0
    vertex 1.4142135623730956 1.4142135623730943 20.0
    vertex 1.0000000000000007 1.7320508075688765 20.0
  endloop
endfacet
facet normal -0.9238795325112871 -0.38268343236508934 -0.0
  outer loop
    vertex 1.7320508075688772 0.9999999999999994 20.0
    vertex 1.9318516525781364 0.5176380902050407 0.0
    vertex 1.9318516525781364 0.5176380902050407 20.0
  endloop
endfacet
facet normal -0.9238795325112871 -0.38268343236508934 -0.0
  outer loop
    vertex 1.9318516525781364 0.5176380902050407 0.0
    vertex 1.7320508075688772 0.9999999999999994 20.0
    vertex 1.7320508075688772 0.9999999999999994 0.0
  endloop
endfacet
facet normal 0.7933533402912349 -0.6087614290087209 0.0
  outer loop
    vertex 5.211098220847966 -3.0086289605801504 0.0
    vertex 4.254843880200918 -4.254843880200921 1.9999999999999998
    vertex 4.254843880200918 -4.254843880200921 0.0
  endloop
endfacet
facet normal 0.7933533402912349 -0.6087614290087209 0.0
  outer loop
    vertex 4.254843880200918 -4.254843880200921 1.9999999999999998
    vertex 5.211098220847966 -3.0086289605801504 0.0
    vertex 5.211098220847966 -3.0086289605801504 1.9999999999999998
  endloop
endfacet
facet normal 0.38268343236509034 0.9238795325112867 0.0
  outer loop
    vertex -0.9999999999999999 -1.732050807568877 20.0
    vertex -0.5176380902050418 -1.9318516525781364 0.0
    vertex -0.9999999999999999 -1.732050807568877 0.0
  endloop
endfacet
facet normal 0.38268343236509034 0.9238795325112867 0.0
  outer loop
    vertex -0.5176380902050418 -1.9318516525781364 0.0
    vertex -0.9999999999999999 -1.732050807568877 20.0
    vertex -0.5176380902050418 -1.9318516525781364 20.0
  endloop
endfacet
facet normal 0.6087614290087205 0.7933533402912353 0.0
  outer loop
    vertex -1.414213562373095 -1.414213562373095 20.0
    vertex -0.9999999999999999 -1.732050807568877 0.0
    vertex -1.414213562373095 -1.414213562373095 0.0
  endloop
endfacet
facet normal 0.6087614290087205 0.7933533402912353 0.0
  outer loop
    vertex -0.9999999999999999 -1.732050807568877 0.0
    vertex -1.414213562373095 -1.414213562373095 20.0
    vertex -0.9999999999999999 -1.732050807568877 20.0
  endloop
endfacet
facet normal -0.9914448613738106 -0.13052619222005124 -0.0
  outer loop
    vertex 1.9318516525781364 0.5176380902050407 20.0
    vertex 1.9999999999999996 -2.449293598294706e-16 0.0
    vertex 1.9999999999999996 -2.449293598294706e-16 20.0
  endloop
endfacet
facet normal -0.9914448613738106 -0.13052619222005124 -0.0
  outer loop
    vertex 1.9999999999999996 -2.449293598294706e-16 0.0
    vertex 1.9318516525781364 0.5176380902050407 20.0
    vertex 1.9318516525781364 0.5176380902050407 0.0
  endloop
endfacet
facet normal 0.7933533402912354 0.6087614290087203 0.0
  outer loop
    vertex -1.732050807568877 -0.9999999999999998 0.0
    vertex -1.414213562373095 -1.414213562373095 20.0
    vertex -1.414213562373095 -1.414213562373095 0.0
  endloop
endfacet
facet normal 0.7933533402912354 0.6087614290087203 0.0
  outer loop
    vertex -1.414213562373095 -1.414213562373095 20.0
    vertex -1.732050807568877 -0.9999999999999998 0.0
    vertex -1.732050807568877 -0.9999999999999998 20.0
  endloop
endfacet
facet normal -0.1305261922200518 0.9914448613738104 0.0
  outer loop
    vertex -1.224646799147353e-16 -1.9999999999999998 20.0
    vertex 0.5176380902050411 -1.9318516525781364 0.0
    vertex -1.224646799147353e-16 -1.9999999999999998 0.0
  endloop
endfacet
facet normal -0.1305261922200518 0.9914448613738104 0.0
  outer loop
    vertex 0.5176380902050411 -1.9318516525781364 0.0
    vertex -1.224646799147353e-16 -1.9999999999999998 20.0
    vertex 0.5176380902050411 -1.9318516525781364 20.0
  endloop
endfacet
facet normal 0.13052619222005168 0.9914448613738104 0.0
  outer loop
    vertex -0.5176380902050418 -1.9318516525781364 20.0
    vertex -1.224646799147353e-16 -1.9999999999999998 0.0
    vertex -0.5176380902050418 -1.9318516525781364 0.0
  endloop
endfacet
facet normal 0.13052619222005168 0.9914448613738104 0.0
  outer loop
    vertex -1.224646799147353e-16 -1.9999999999999998 0.0
    vertex -0.5176380902050418 -1.9318516525781364 20.0
    vertex -1.224646799147353e-16 -1.9999999999999998 20.0
  endloop
endfacet
facet normal 0.9914448613738104 0.13052619222005174 0.0
  outer loop
    vertex -1.9999999999999996 0.0 0.0
    vertex -1.931851652578136 -0.5176380902050415 20.0
    vertex -1.931851652578136 -0.5176380902050415 0.0
  endloop
endfacet
facet normal 0.9914448613738104 0.13052619222005174 0.0
  outer loop
    vertex -1.931851652578136 -0.5176380902050415 20.0
    vertex -1.9999999999999996 0.0 0.0
    vertex -1.9999999999999996 0.0 20.0
  endloop
endfacet
facet normal -0.3826834323650896 0.9238795325112867 0.0
  outer loop
    vertex 0.5176380902050411 -1.9318516525781364 20.0
    vertex 0.9999999999999992 -1.7320508075688772 0.0
    vertex 0.5176380902050411 -1.9318516525781364 0.0
  endloop
endfacet
facet normal -0.3826834323650896 0.9238795325112867 0.0
  outer loop
    vertex 0.9999999999999992 -1.7320508075688772 0.0
    vertex 0.5176380902050411 -1.9318516525781364 20.0
    vertex 0.9999999999999992 -1.7320508075688772 20.0
  endloop
endfacet
facet normal 0.9914448613738104 -0.13052619222005202 0.0
  outer loop
    vertex -1.9318516525781357 0.517638090205043 0.0
    vertex -1.9999999999999996 0.0 20.0
    vertex -1.9999999999999996 0.0 0.0
  endloop
endfacet
facet normal 0.9914448613738104 -0.13052619222005202 0.0
  outer loop
    vertex -1.9999999999999996 0.0 20.0
    vertex -1.9318516525781357 0.517638090205043 0.0
    vertex -1.9318516525781357 0.517638090205043 20.0
  endloop
endfacet
facet normal -0.793353340291235 0.6087614290087208 0.0
  outer loop
    vertex 1.7320508075688765 -1.0000000000000007 20.0
    vertex 1.4142135623730947 -1.4142135623730951 0.0
    vertex 1.4142135623730947 -1.4142135623730951 20.0
  endloop
endfacet
facet normal -0.793353340291235 0.6087614290087208 0.0
  outer loop
    vertex 1.4142135623730947 -1.4142135623730951 0.0
    vertex 1.7320508075688765 -1.0000000000000007 20.0
    vertex 1.7320508075688765 -1.0000000000000007 0.0
  endloop
endfacet
facet normal -0.9914448613738104 0.13052619222005168 0.0
  outer loop
    vertex 1.9999999999999996 -2.449293598294706e-16 20.0
    vertex 1.931851652578136 -0.517638090205042 0.0
    vertex 1.931851652578136 -0.517638090205042 20.0
  endloop
endfacet
facet normal -0.9914448613738104 0.13052619222005168 0.0
  outer loop
    vertex 1.931851652578136 -0.517638090205042 0.0
    vertex 1.9999999999999996 -2.449293598294706e-16 20.0
    vertex 1.9999999999999996 -2.449293598294706e-16 0.0
  endloop
endfacet
facet normal -0.0 -0.0 1.0
  outer loop
    vertex -5.812224829491208 -1.5573809492902926 1.9999999999999998
    vertex -5.812224829491207 1.5573809492902948 1.9999999999999998
    vertex -6.0172579211603034 1.4981071938535704e-15 1.9999999999999998
  endloop
endfacet
facet normal -0.0 -0.0 1.0
  outer loop
    vertex -5.812224829491207 1.5573809492902948 1.9999999999999998
    vertex -5.812224829491208 -1.5573809492902926 1.9999999999999998
    vertex -5.2110982208479655 -3.0086289605801495 1.9999999999999998
  endloop
endfacet
facet normal -0.0 -0.0 1.0
  outer loop
    vertex -5.812224829491207 1.5573809492902948 1.9999999999999998
    vertex -5.2110982208479655 -3.0086289605801495 1.9999999999999998
    vertex -5.211098220847962 3.008628960580157 1.9999999999999998
  endloop
endfacet
facet normal -0.0 -0.0 1.0
  outer loop
    vertex -5.211098220847962 3.008628960580157 1.9999999999999998
    vertex -5.2110982208479655 -3.0086289605801495 1.9999999999999998
    vertex -4.254843880200919 -4.25484388020092 1.9999999999999998
  endloop
endfacet
facet normal -0.0 -0.0 1.0
  outer loop
    vertex -5.211098220847962 3.008628960580157 1.9999999999999998
    vertex -4.254843880200919 -4.25484388020092 1.9999999999999998
    vertex -4.254843880200918 4.254843880200921 1.9999999999999998
  endloop
endfacet
facet normal -0.0 -0.0 1.0
  outer loop
    vertex -4.254843880200918 4.254843880200921 1.9999999999999998
    vertex -4.254843880200919 -4.25484388020092 1.9999999999999998
    vertex -3.999999999999999 0.0 1.9999999999999998
  endloop
endfacet
facet normal -0.0 -0.0 1.0
  outer loop
    vertex -3.999999999999999 0.0 1.9999999999999998
    vertex -4.254843880200919 -4.25484388020092 1.9999999999999998
    vertex -3.863703305156272 -1.035276180410083 1.9999999999999998
  endloop
endfacet
facet normal -0.0 -0.0 1.0
  outer loop
    vertex -3.863703305156272 -1.035276180410083 1.9999999999999998
    vertex -4.254843880200919 -4.25484388020092 1.9999999999999998
    vertex -3.008628960580149 -5.211098220847967 1.9999999999999998
  endloop
endfacet
facet normal -0.0 -0.0 1.0
  outer loop
    vertex -3.863703305156272 -1.035276180410083 1.9999999999999998
    vertex -3.008628960580149 -5.211098220847967 1.9999999999999998
    vertex -3.464101615137754 -1.9999999999999996 1.9999999999999998
  endloop
endfacet
facet normal -0.0 -0.0 1.0
  outer loop
    vertex -3.464101615137754 -1.9999999999999996 1.9999999999999998
    vertex -3.008628960580149 -5.211098220847967 1.9999999999999998
    vertex -2.82842712474619 -2.82842712474619 1.9999999999999998
  endloop
endfacet
facet normal -0.0 -0.0 1.0
  outer loop
    vertex -2.82842712474619 -2.82842712474619 1.9999999999999998
    vertex -3.008628960580149 -5.211098220847967 1.9999999999999998
    vertex -1.5573809492902926 -5.812224829491208 1.9999999999999998
  endloop
endfacet
facet normal -0.0 -0.0 1.0
  outer loop
    vertex -2.82842712474619 -2.82842712474619 1.9999999999999998
    vertex -1.5573809492902926 -5.812224829491208 1.9999999999999998
    vertex -1.9999999999999998 -3.464101615137754 1.9999999999999998
  endloop
endfacet
facet normal -0.0 -0.0 1.0
  outer loop
    vertex -1.9999999999999998 -3.464101615137754 1.9999999999999998
    vertex -1.5573809492902926 -5.812224829491208 1.9999999999999998
    vertex -1.0352761804100836 -3.863703305156273 1.9999999999999998
  endloop
endfacet
facet normal -0.0 -0.0 1.0
  outer loop
    vertex -1.0352761804100836 -3.863703305156273 1.9999999999999998
    vertex -1.5573809492902926 -5.812224829491208 1.9999999999999998
    vertex -1.1015494072452725e-15 -6.017257921160304 1.9999999999999998
  endloop
endfacet
facet normal -0.0 -0.0 1.0
  outer loop
    vertex -1.0352761804100836 -3.863703305156273 1.9999999999999998
    vertex -1.1015494072452725e-15 -6.017257921160304 1.9999999999999998
    vertex -2.449293598294706e-16 -3.9999999999999996 1.9999999999999998
  endloop
endfacet
facet normal -0.0 -0.0 1.0
  outer loop
    vertex -2.449293598294706e-16 -3.9999999999999996 1.9999999999999998
    vertex -1.1015494072452725e-15 -6.017257921160304 1.9999999999999998
    vertex 1.557380949290283 -5.8122248294912096 1.9999999999999998
  endloop
endfacet
facet normal -0.0 -0.0 1.0
  outer loop
    vertex -2.449293598294706e-16 -3.9999999999999996 1.9999999999999998
    vertex 1.557380949290283 -5.8122248294912096 1.9999999999999998
    vertex 1.0352761804100823 -3.863703305156273 1.9999999999999998
  endloop
endfacet
facet normal -0.0 -0.0 1.0
  outer loop
    vertex 1.0352761804100823 -3.863703305156273 1.9999999999999998
    vertex 1.557380949290283 -5.8122248294912096 1.9999999999999998
    vertex 1.9999999999999984 -3.4641016151377544 1.9999999999999998
  endloop
endfacet
facet normal -0.0 -0.0 1.0
  outer loop
    vertex 1.9999999999999984 -3.4641016151377544 1.9999999999999998
    vertex 1.557380949290283 -5.8122248294912096 1.9999999999999998
    vertex 3.0086289605801486 -5.211098220847966 1.9999999999999998
  endloop
endfacet
facet normal -0.0 -0.0 1.0
  outer loop
    vertex 1.9999999999999984 -3.4641016151377544 1.9999999999999998
    vertex 3.0086289605801486 -5.211098220847966 1.9999999999999998
    vertex 2.8284271247461894 -2.8284271247461903 1.9999999999999998
  endloop
endfacet
facet normal -0.0 -0.0 1.0
  outer loop
    vertex 2.8284271247461894 -2.8284271247461903 1.9999999999999998
    vertex 3.0086289605801486 -5.211098220847966 1.9999999999999998
    vertex 3.464101615137753 -2.0000000000000013 1.9999999999999998
  endloop
endfacet
facet normal -0.0 -0.0 1.0
  outer loop
    vertex 3.464101615137753 -2.0000000000000013 1.9999999999999998
    vertex 3.0086289605801486 -5.211098220847966 1.9999999999999998
    vertex 4.254843880200918 -4.254843880200921 1.9999999999999998
  endloop
endfacet
facet normal -0.0 -0.0 1.0
  outer loop
    vertex 3.464101615137753 -2.0000000000000013 1.9999999999999998
    vertex 4.254843880200918 -4.254843880200921 1.9999999999999998
    vertex 3.863703305156272 -1.035276180410084 1.9999999999999998
  endloop
endfacet
facet normal -0.0 -0.0 1.0
  outer loop
    vertex 3.863703305156272 -1.035276180410084 1.9999999999999998
    vertex 4.254843880200918 -4.254843880200921 1.9999999999999998
    vertex 3.999999999999999 -4.898587196589412e-16 1.9999999999999998
  endloop
endfacet
facet normal -0.0 -0.0 1.0
  outer loop
    vertex -4.254843880200918 4.254843880200921 1.9999999999999998
    vertex -3.8637033051562715 1.035276180410086 1.9999999999999998
    vertex -3.0086289605801544 5.211098220847965 1.9999999999999998
  endloop
endfacet
facet normal -0.0 -0.0 1.0
  outer loop
    vertex -3.8637033051562715 1.035276180410086 1.9999999999999998
    vertex -4.254843880200918 4.254843880200921 1.9999999999999998
    vertex -3.999999999999999 0.0 1.9999999999999998
  endloop
endfacet
facet normal -0.0 -0.0 1.0
  outer loop
    vertex -3.0086289605801544 5.211098220847965 1.9999999999999998
    vertex -3.8637033051562715 1.035276180410086 1.9999999999999998
    vertex -3.4641016151377526 2.0000000000000018 1.9999999999999998
  endloop
endfacet
facet normal -0.0 -0.0 1.0
  outer loop
    vertex -3.0086289605801544 5.211098220847965 1.9999999999999998
    vertex -3.4641016151377526 2.0000000000000018 1.9999999999999998
    vertex -2.8284271247461885 2.8284271247461903 1.9999999999999998
  endloop
endfacet
facet normal -0.0 -0.0 1.0
  outer loop
    vertex -3.0086289605801544 5.211098220847965 1.9999999999999998
    vertex -2.8284271247461885 2.8284271247461903 1.9999999999999998
    vertex -1.557380949290286 5.81222482949121 1.9999999999999998
  endloop
endfacet
facet normal -0.0 -0.0 1.0
  outer loop
    vertex -1.557380949290286 5.81222482949121 1.9999999999999998
    vertex -2.8284271247461885 2.8284271247461903 1.9999999999999998
    vertex -1.9999999999999967 3.464101615137756 1.9999999999999998
  endloop
endfacet
facet normal -0.0 -0.0 1.0
  outer loop
    vertex -1.557380949290286 5.81222482949121 1.9999999999999998
    vertex -1.9999999999999967 3.464101615137756 1.9999999999999998
    vertex -1.035276180410081 3.8637033051562732 1.9999999999999998
  endloop
endfacet
facet normal -0.0 -0.0 1.0
  outer loop
    vertex -1.557380949290286 5.81222482949121 1.9999999999999998
    vertex -1.035276180410081 3.8637033051562732 1.9999999999999998
    vertex -2.7318425299682757e-15 6.017257921160305 1.9999999999999998
  endloop
endfacet
facet normal -0.0 -0.0 1.0
  outer loop
    vertex -2.7318425299682757e-15 6.017257921160305 1.9999999999999998
    vertex -1.035276180410081 3.8637033051562732 1.9999999999999998
    vertex 7.347880794884117e-16 3.9999999999999996 1.9999999999999998
  endloop
endfacet
facet normal -0.0 -0.0 1.0
  outer loop
    vertex -2.7318425299682757e-15 6.017257921160305 1.9999999999999998
    vertex 7.347880794884117e-16 3.9999999999999996 1.9999999999999998
    vertex 1.5573809492902935 5.812224829491208 1.9999999999999998
  endloop
endfacet
facet normal -0.0 -0.0 1.0
  outer loop
    vertex 1.5573809492902935 5.812224829491208 1.9999999999999998
    vertex 7.347880794884117e-16 3.9999999999999996 1.9999999999999998
    vertex 1.0352761804100858 3.863703305156272 1.9999999999999998
  endloop
endfacet
facet normal -0.0 -0.0 1.0
  outer loop
    vertex 1.5573809492902935 5.812224829491208 1.9999999999999998
    vertex 1.0352761804100858 3.863703305156272 1.9999999999999998
    vertex 2.0000000000000013 3.464101615137753 1.9999999999999998
  endloop
endfacet
facet normal -0.0 -0.0 1.0
  outer loop
    vertex 1.5573809492902935 5.812224829491208 1.9999999999999998
    vertex 2.0000000000000013 3.464101615137753 1.9999999999999998
    vertex 3.0086289605801535 5.211098220847965 1.9999999999999998
  endloop
endfacet
facet normal -0.0 -0.0 1.0
  outer loop
    vertex 3.0086289605801535 5.211098220847965 1.9999999999999998
    vertex 2.0000000000000013 3.464101615137753 1.9999999999999998
    vertex 2.828427124746191 2.8284271247461885 1.9999999999999998
  endloop
endfacet
facet normal -0.0 -0.0 1.0
  outer loop
    vertex 3.0086289605801535 5.211098220847965 1.9999999999999998
    vertex 2.828427124746191 2.8284271247461885 1.9999999999999998
    vertex 3.4641016151377544 1.999999999999999 1.9999999999999998
  endloop
endfacet
facet normal -0.0 -0.0 1.0
  outer loop
    vertex 3.0086289605801535 5.211098220847965 1.9999999999999998
    vertex 3.4641016151377544 1.999999999999999 1.9999999999999998
    vertex 4.254843880200921 4.254843880200918 1.9999999999999998
  endloop
endfacet
facet normal -0.0 -0.0 1.0
  outer loop
    vertex 4.254843880200921 4.254843880200918 1.9999999999999998
    vertex 3.4641016151377544 1.999999999999999 1.9999999999999998
    vertex 3.863703305156273 1.0352761804100814 1.9999999999999998
  endloop
endfacet
facet normal -0.0 -0.0 1.0
  outer loop
    vertex 4.254843880200921 4.254843880200918 1.9999999999999998
    vertex 3.863703305156273 1.0352761804100814 1.9999999999999998
    vertex 3.999999999999999 -4.898587196589412e-16 1.9999999999999998
  endloop
endfacet
facet normal -0.0 -0.0 1.0
  outer loop
    vertex 4.254843880200921 4.254843880200918 1.9999999999999998
    vertex 3.999999999999999 -4.898587196589412e-16 1.9999999999999998
    vertex 4.254843880200918 -4.254843880200921 1.9999999999999998
  endloop
endfacet
facet normal -0.0 -0.0 1.0
  outer loop
    vertex 4.254843880200921 4.254843880200918 1.9999999999999998
    vertex 4.254843880200918 -4.254843880200921 1.9999999999999998
    vertex 5.211098220847966 -3.0086289605801504 1.9999999999999998
  endloop
endfacet
facet normal -0.0 -0.0 1.0
  outer loop
    vertex 4.254843880200921 4.254843880200918 1.9999999999999998
    vertex 5.211098220847966 -3.0086289605801504 1.9999999999999998
    vertex 5.211098220847967 3.0086289605801477 1.9999999999999998
  endloop
endfacet
facet normal -0.0 -0.0 1.0
  outer loop
    vertex 5.211098220847967 3.0086289605801477 1.9999999999999998
    vertex 5.211098220847966 -3.0086289605801504 1.9999999999999998
    vertex 5.812224829491207 -1.557380949290295 1.9999999999999998
  endloop
endfacet
facet normal -0.0 -0.0 1.0
  outer loop
    vertex 5.211098220847967 3.0086289605801477 1.9999999999999998
    vertex 5.812224829491207 -1.557380949290295 1.9999999999999998
    vertex 5.812224829491209 1.5573809492902906 1.9999999999999998
  endloop
endfacet
facet normal -0.0 -0.0 1.0
  outer loop
    vertex 5.812224829491209 1.5573809492902906 1.9999999999999998
    vertex 5.812224829491207 -1.557380949290295 1.9999999999999998
    vertex 6.017257921160304 4.758693439299577e-15 1.9999999999999998
  endloop
endfacet
facet normal 0.9238795325112868 0.38268343236508956 0.0
  outer loop
    vertex -1.931851652578136 -0.5176380902050415 0.0
    vertex -1.732050807568877 -0.9999999999999998 20.0
    vertex -1.732050807568877 -0.9999999999999998 0.0
  endloop
endfacet
facet normal 0.9238795325112868 0.38268343236508956 0.0
  outer loop
    vertex -1.732050807568877 -0.9999999999999998 20.0
    vertex -1.931851652578136 -0.5176380902050415 0.0
    vertex -1.931851652578136 -0.5176380902050415 20.0
  endloop
endfacet
facet normal -0.9238795325112867 0.3826834323650899 0.0
  outer loop
    vertex 1.931851652578136 -0.517638090205042 20.0
    vertex 1.7320508075688765 -1.0000000000000007 0.0
    vertex 1.7320508075688765 -1.0000000000000007 20.0
  endloop
endfacet
facet normal -0.9238795325112867 0.3826834323650899 0.0
  outer loop
    vertex 1.7320508075688765 -1.0000000000000007 0.0
    vertex 1.931851652578136 -0.517638090205042 20.0
    vertex 1.931851652578136 -0.517638090205042 0.0
  endloop
endfacet
facet normal -0.6087614290087202 0.7933533402912355 0.0
  outer loop
    vertex 0.9999999999999992 -1.7320508075688772 20.0
    vertex 1.4142135623730947 -1.4142135623730951 0.0
    vertex 0.9999999999999992 -1.7320508075688772 0.0
  endloop
endfacet
facet normal -0.6087614290087202 0.7933533402912355 0.0
  outer loop
    vertex 1.4142135623730947 -1.4142135623730951 0.0
    vertex 0.9999999999999992 -1.7320508075688772 20.0
    vertex 1.4142135623730947 -1.4142135623730951 20.0
  endloop
endfacet
endsolid Untitled-62998f2a
